<svg width="34" height="44" viewBox="0 0 34 44" fill="none" xmlns="http://www.w3.org/2000/svg">
<path d="M4.76469 35.5473C4.78752 35.5713 4.81026 35.5954 4.88861 35.6444C4.90796 35.679 4.92731 35.7137 4.97278 35.8027C5.00539 35.8535 5.03799 35.9043 5.06174 35.9339C5.06174 35.9339 5.08296 35.925 5.08193 36.0093C5.26569 36.3663 5.40199 36.7591 5.64094 37.0746C7.1661 39.0885 9.01533 40.7253 11.3544 41.7485C14.5283 43.1369 17.7976 43.4975 21.2065 42.7276C24.7113 41.9359 27.6378 40.2861 29.7711 37.354C31.0615 35.5805 31.7773 33.6007 31.8961 31.4183C31.8961 31.4183 31.8884 31.4154 31.9599 31.3756C32.0143 31.1946 32.0687 31.0136 32.125 30.7522C33.4706 27.1638 33.6234 23.4919 32.8219 19.7763C31.7545 14.828 29.5407 10.4182 26.3655 6.48244C24.4723 4.13585 22.2972 2.11684 19.588 0.711597C18.1158 -0.0520225 16.6737 -0.0630249 15.1787 0.637276C13.3872 1.47647 11.7702 2.57594 10.3433 3.92233C5.07913 8.88951 1.56489 14.793 0.806863 22.1048C0.466954 25.3835 0.838159 28.5923 2.29563 31.5864C2.91974 32.8685 3.76596 34.0431 4.5483 35.3118C4.57312 35.342 4.59793 35.3721 4.61544 35.4023C4.61544 35.4023 4.61638 35.3951 4.65403 35.433C4.67866 35.4587 4.70334 35.4843 4.72925 35.5105C4.72925 35.5105 4.72976 35.5117 4.76469 35.5473Z" fill="#007BFF"/>
<path d="M4.94665 35.7483C4.92731 35.7137 4.90796 35.679 4.85315 35.6065C4.7967 35.5368 4.76739 35.5179 4.72976 35.5117C4.72976 35.5117 4.72925 35.5105 4.72014 35.4828C4.67949 35.4351 4.64793 35.4151 4.61638 35.3951C4.61638 35.3951 4.61544 35.4023 4.61035 35.3727C4.57392 35.3176 4.54259 35.2921 4.51126 35.2666C3.76596 34.0431 2.91974 32.8685 2.29563 31.5864C0.838159 28.5923 0.466954 25.3835 0.806863 22.1048C1.56489 14.793 5.07913 8.88951 10.3433 3.92233C11.7702 2.57594 13.3872 1.47647 15.1787 0.637276C16.6737 -0.063025 18.1158 -0.0520225 19.588 0.711597C22.2972 2.11685 24.4723 4.13585 26.3655 6.48244C29.5407 10.4182 31.7545 14.828 32.8219 19.7763C33.6234 23.4919 33.4706 27.1638 32.0962 30.8212C32.0077 31.0652 31.9481 31.2403 31.8884 31.4154C31.8884 31.4154 31.8961 31.4183 31.8652 31.4358C31.173 32.9004 30.3321 34.2363 29.2876 35.4372C26.4853 38.6592 22.9791 40.5973 18.7084 41.0576C15.3435 41.4203 12.1743 40.7306 9.20708 39.1124C7.66152 38.2696 6.3343 37.146 5.08296 35.925C5.08296 35.925 5.06174 35.9339 5.06881 35.9117C5.0328 35.8424 4.98973 35.7954 4.94665 35.7483ZM26.9068 31.3526C27.541 30.273 27.9019 29.1084 28.0401 27.8654C28.3059 25.4756 27.7473 23.1815 27.2486 20.88C27.1971 20.642 27.0858 20.4168 26.9739 20.107C26.8467 20.2919 26.7858 20.3813 26.724 20.4701C26.224 21.1894 25.8377 22.0379 25.1976 22.5984C24.1659 23.5021 22.9791 24.234 21.8356 25.0058C20.0732 26.1953 18.7599 27.709 18.3213 29.8347C18.0156 31.3162 18.1848 32.7331 19.405 33.7846C20.6868 34.8893 22.178 34.8885 23.6765 34.2982C25.0867 33.7427 26.0822 32.6896 26.9068 31.3526ZM19.6108 9.89262C19.4827 9.57077 19.3546 9.24892 19.1947 8.84702C19.1376 9.10301 19.0801 9.27377 19.0637 9.44835C18.9518 10.6455 18.4254 11.6668 17.7075 12.6003C17.3146 13.1112 16.8889 13.5974 16.4715 14.0892C14.8745 15.9706 13.9718 18.0806 14.3859 20.5925C14.6301 22.0739 15.3252 23.306 16.7974 23.8527C18.2119 24.3779 19.538 24.026 20.6646 23.0483C21.6268 22.2132 22.2227 21.1359 22.4721 19.8914C22.8658 17.9267 22.5269 16.0386 21.7176 14.2383C21.0692 12.7961 20.3387 11.3907 19.6108 9.89262ZM11.9818 30.2345C13.2835 30.8473 14.5489 30.7325 15.2712 29.9362C16.0081 29.1237 16.0001 27.8851 15.2482 26.6485C15.1813 26.5385 15.1127 26.4281 15.0327 26.3275C14.0708 25.1176 12.7914 24.4275 11.2971 24.1294C9.83607 23.838 8.36573 23.5927 7.10068 23.3636C7.92927 24.846 8.82779 26.4797 9.75288 28.0984C10.2664 28.9969 11.004 29.6867 11.9818 30.2345Z" fill="#EEEFF3"/>
</svg>
