<svg width="25" height="35" viewBox="0 0 25 35" fill="none" xmlns="http://www.w3.org/2000/svg">
<path d="M3.12301 28.1333C3.14051 28.1523 3.15794 28.1713 3.21798 28.2101C3.23281 28.2375 3.24764 28.2649 3.28249 28.3353C3.30748 28.3755 3.33246 28.4156 3.35067 28.439C3.35067 28.439 3.36693 28.432 3.36614 28.4986C3.50697 28.781 3.61143 29.0915 3.79456 29.341C4.96341 30.9334 6.38064 32.2276 8.17325 33.0366C10.6057 34.1344 13.1112 34.4196 15.7238 33.8107C18.4098 33.1848 20.6526 31.8803 22.2876 29.5618C23.2765 28.1596 23.8251 26.5941 23.9161 24.8685C23.9161 24.8685 23.9102 24.8663 23.965 24.8348C24.0067 24.6917 24.0484 24.5486 24.0915 24.3419C25.1228 21.5045 25.2399 18.6011 24.6257 15.6633C23.8076 11.7506 22.111 8.26382 19.6775 5.15181C18.2267 3.29637 16.5596 1.69995 14.4834 0.588821C13.3551 -0.0149713 12.2499 -0.0236709 11.1041 0.530056C9.73118 1.19361 8.4919 2.06295 7.39835 3.12754C3.364 7.05508 0.670733 11.723 0.0897943 17.5044C-0.170707 20.0968 0.113779 22.6341 1.23077 25.0014C1.70907 26.0152 2.3576 26.944 2.95718 27.9472C2.97619 27.971 2.99521 27.9948 3.00863 28.0187C3.00863 28.0187 3.00935 28.013 3.0382 28.043C3.05708 28.0633 3.07599 28.0835 3.09585 28.1042C3.09585 28.1042 3.09625 28.1052 3.12301 28.1333Z" fill="#007BFF"/>
<path d="M3.26247 28.2922C3.24764 28.2649 3.23281 28.2375 3.1908 28.1801C3.14754 28.1251 3.12508 28.1101 3.09625 28.1052C3.09625 28.1052 3.09585 28.1042 3.08887 28.0823C3.05771 28.0446 3.03353 28.0288 3.00935 28.013C3.00935 28.013 3.00863 28.0187 3.00473 27.9953C2.97681 27.9517 2.9528 27.9316 2.92879 27.9114C2.3576 26.944 1.70907 26.0152 1.23077 25.0014C0.113779 22.6341 -0.170707 20.0968 0.0897943 17.5044C0.670733 11.723 3.364 7.05508 7.39835 3.12754C8.4919 2.06295 9.73118 1.19361 11.1041 0.530055C12.2499 -0.0236709 13.3551 -0.0149712 14.4834 0.588821C16.5596 1.69995 18.2267 3.29637 19.6775 5.15181C22.111 8.26382 23.8076 11.7506 24.6257 15.6633C25.2399 18.6011 25.1228 21.5045 24.0694 24.3964C24.0016 24.5894 23.9559 24.7278 23.9102 24.8663C23.9102 24.8663 23.9161 24.8685 23.8925 24.8824C23.3619 26.0404 22.7175 27.0968 21.917 28.0463C19.7694 30.5939 17.0823 32.1263 13.8092 32.4903C11.2305 32.7771 8.80161 32.2318 6.5276 30.9523C5.3431 30.2858 4.32594 29.3974 3.36693 28.432C3.36693 28.432 3.35067 28.439 3.35608 28.4215C3.32849 28.3667 3.29548 28.3295 3.26247 28.2922ZM20.0924 24.8166C20.5785 23.963 20.855 23.0421 20.961 22.0593C21.1647 20.1697 20.7365 18.3557 20.3544 16.536C20.3148 16.3477 20.2296 16.1697 20.1438 15.9248C20.0463 16.071 19.9996 16.1416 19.9523 16.2118C19.5691 16.7806 19.2731 17.4514 18.7825 17.8947C17.9918 18.6092 17.0822 19.1879 16.2059 19.7982C14.8552 20.7387 13.8487 21.9356 13.5126 23.6164C13.2783 24.7878 13.408 25.9081 14.3431 26.7396C15.3255 27.613 16.4683 27.6124 17.6167 27.1457C18.6975 26.7065 19.4604 25.8738 20.0924 24.8166ZM14.5009 7.84824C14.4027 7.59375 14.3045 7.33926 14.1819 7.02148C14.1382 7.22389 14.0941 7.35891 14.0816 7.49695C13.9958 8.44355 13.5924 9.25105 13.0422 9.98915C12.741 10.3931 12.4148 10.7776 12.0949 11.1665C10.871 12.6541 10.1792 14.3224 10.4965 16.3086C10.6837 17.4799 11.2164 18.4542 12.3447 18.8865C13.4287 19.3017 14.4451 19.0235 15.3084 18.2504C16.0459 17.5901 16.5026 16.7382 16.6937 15.7542C16.9955 14.2008 16.7357 12.7078 16.1154 11.2843C15.6186 10.144 15.0587 9.03278 14.5009 7.84824ZM8.65412 23.9325C9.65169 24.417 10.6214 24.3263 11.175 23.6966C11.7398 23.0542 11.7337 22.0749 11.1574 21.0971C11.1061 21.0101 11.0536 20.9228 10.9923 20.8433C10.2551 19.8866 9.27454 19.3409 8.12939 19.1052C7.00964 18.8748 5.88279 18.6808 4.91328 18.4997C5.5483 19.6718 6.23691 20.9636 6.94589 22.2435C7.33945 22.9539 7.9047 23.4994 8.65412 23.9325Z" fill="#EEEFF3"/>
</svg>
