<svg width="25" height="25" viewBox="0 0 25 25" fill="none" xmlns="http://www.w3.org/2000/svg">
<path d="M6.11978 20.0884C6.13218 20.1015 6.14453 20.1147 6.18709 20.1414C6.1976 20.1603 6.20811 20.1791 6.23281 20.2277C6.25052 20.2554 6.26823 20.283 6.28114 20.2992C6.28114 20.2992 6.29266 20.2943 6.2921 20.3403C6.39192 20.5349 6.46596 20.749 6.59576 20.9209C7.42422 22.0186 8.42872 22.9108 9.69929 23.4685C11.4233 24.2252 13.1992 24.4218 15.051 24.0021C16.9547 23.5706 18.5444 22.6714 19.7032 21.0732C20.4041 20.1065 20.793 19.0274 20.8575 17.8379C20.8575 17.8379 20.8533 17.8363 20.8922 17.8147C20.9217 17.716 20.9513 17.6173 20.9819 17.4749C21.7128 15.519 21.7958 13.5176 21.3604 11.4924C20.7806 8.79522 19.5781 6.39165 17.8533 4.24643C16.8249 2.96739 15.6434 1.86692 14.1718 1.10098C13.3721 0.684762 12.5887 0.678765 11.7766 1.06047C10.8035 1.51788 9.92514 2.11715 9.15006 2.85102C6.29058 5.55842 4.38165 8.77618 3.96989 12.7615C3.78526 14.5486 3.98689 16.2976 4.77859 17.9295C5.1176 18.6283 5.57727 19.2686 6.00224 19.9601C6.01572 19.9766 6.0292 19.993 6.03871 20.0094C6.03871 20.0094 6.03922 20.0055 6.05967 20.0262C6.07305 20.0402 6.08645 20.0541 6.10053 20.0684C6.10053 20.0684 6.10081 20.0691 6.11978 20.0884Z" fill="#007BFF"/>
<path d="M6.21862 20.198C6.20811 20.1791 6.1976 20.1603 6.16783 20.1207C6.13717 20.0828 6.12125 20.0724 6.10081 20.0691C6.10081 20.0691 6.10053 20.0684 6.09558 20.0533C6.0735 20.0273 6.05636 20.0164 6.03922 20.0055C6.03922 20.0055 6.03871 20.0094 6.03594 19.9933C6.01615 19.9633 5.99914 19.9494 5.98212 19.9355C5.57727 19.2686 5.1176 18.6283 4.77859 17.9295C3.98689 16.2976 3.78526 14.5486 3.96989 12.7615C4.38165 8.77618 6.29058 5.55842 9.15006 2.85102C9.92514 2.11715 10.8035 1.51788 11.7766 1.06047C12.5887 0.678765 13.3721 0.684762 14.1718 1.10098C15.6434 1.86692 16.8249 2.96739 17.8533 4.24643C19.5781 6.39165 20.7806 8.79522 21.3604 11.4924C21.7958 13.5176 21.7128 15.519 20.9662 17.5125C20.9181 17.6455 20.8857 17.7409 20.8533 17.8363C20.8533 17.8363 20.8575 17.8379 20.8408 17.8475C20.4647 18.6457 20.0079 19.3739 19.4406 20.0284C17.9184 21.7846 16.0138 22.841 13.694 23.0919C11.8662 23.2896 10.1447 22.9137 8.53288 22.0317C7.69333 21.5722 6.97239 20.9599 6.29266 20.2943C6.29266 20.2943 6.28113 20.2992 6.28497 20.2871C6.26542 20.2493 6.24202 20.2237 6.21862 20.198ZM18.1473 17.8021C18.4918 17.2137 18.6879 16.5789 18.763 15.9014C18.9073 14.5988 18.6039 13.3484 18.333 12.094C18.305 11.9642 18.2446 11.8415 18.1838 11.6726C18.1147 11.7734 18.0816 11.8221 18.0481 11.8705C17.7764 12.2626 17.5666 12.725 17.2189 13.0306C16.6585 13.5231 16.0138 13.9221 15.3926 14.3427C14.4354 14.9911 13.722 15.8162 13.4837 16.9748C13.3177 17.7823 13.4096 18.5546 14.0724 19.1277C14.7686 19.7298 15.5787 19.7294 16.3926 19.4076C17.1586 19.1049 17.6994 18.5309 18.1473 17.8021ZM14.1842 6.10517C14.1146 5.92974 14.045 5.75432 13.9581 5.53526C13.9271 5.67479 13.8959 5.76786 13.887 5.86302C13.8262 6.51554 13.5403 7.07218 13.1503 7.58099C12.9368 7.85946 12.7056 8.12448 12.4789 8.39255C11.6114 9.41801 11.1211 10.5681 11.346 11.9372C11.4786 12.7447 11.8562 13.4163 12.656 13.7142C13.4243 14.0005 14.1446 13.8087 14.7566 13.2758C15.2793 12.8206 15.603 12.2334 15.7384 11.5551C15.9523 10.4842 15.7682 9.45507 15.3285 8.47379C14.9764 7.68775 14.5795 6.92173 14.1842 6.10517ZM10.0401 17.1927C10.7472 17.5267 11.4345 17.4641 11.8269 17.0301C12.2272 16.5872 12.2228 15.9121 11.8144 15.2381C11.7781 15.1781 11.7408 15.118 11.6974 15.0631C11.1749 14.4037 10.4799 14.0275 9.6682 13.8651C8.87454 13.7062 8.07586 13.5725 7.38869 13.4476C7.83877 14.2556 8.32685 15.1461 8.82936 16.0284C9.10831 16.5181 9.50894 16.8941 10.0401 17.1927Z" fill="#EEEFF3"/>
</svg>
