<svg width="25" height="34" viewBox="0 0 25 34" fill="none" xmlns="http://www.w3.org/2000/svg">
<path d="M3.12301 28.0083C3.14051 28.0273 3.15794 28.0463 3.21798 28.0851C3.23281 28.1125 3.24764 28.1399 3.28249 28.2103C3.30748 28.2505 3.33246 28.2906 3.35067 28.314C3.35067 28.314 3.36693 28.307 3.36614 28.3736C3.50697 28.656 3.61143 28.9665 3.79456 29.216C4.96341 30.8084 6.38064 32.1026 8.17325 32.9116C10.6057 34.0094 13.1112 34.2946 15.7238 33.6857C18.4098 33.0598 20.6526 31.7553 22.2876 29.4368C23.2765 28.0346 23.8251 26.4691 23.9161 24.7435C23.9161 24.7435 23.9102 24.7413 23.965 24.7098C24.0067 24.5667 24.0484 24.4236 24.0915 24.2169C25.1228 21.3795 25.2399 18.4761 24.6257 15.5383C23.8076 11.6256 22.111 8.13882 19.6775 5.02681C18.2267 3.17137 16.5596 1.57495 14.4834 0.463821C13.3551 -0.139971 12.2499 -0.148671 11.1041 0.405056C9.73118 1.06861 8.4919 1.93795 7.39835 3.00254C3.364 6.93008 0.670733 11.598 0.0897943 17.3794C-0.170707 19.9718 0.113779 22.5091 1.23077 24.8764C1.70907 25.8902 2.3576 26.819 2.95718 27.8222C2.97619 27.846 2.99521 27.8698 3.00863 27.8937C3.00863 27.8937 3.00935 27.888 3.0382 27.918C3.05708 27.9383 3.07599 27.9585 3.09585 27.9792C3.09585 27.9792 3.09625 27.9802 3.12301 28.0083Z" fill="#007BFF"/>
<path d="M3.26247 28.1672C3.24764 28.1399 3.23281 28.1125 3.1908 28.0551C3.14754 28.0001 3.12508 27.9851 3.09625 27.9802C3.09625 27.9802 3.09585 27.9792 3.08887 27.9573C3.05771 27.9196 3.03353 27.9038 3.00935 27.888C3.00935 27.888 3.00863 27.8937 3.00473 27.8703C2.97681 27.8267 2.9528 27.8066 2.92879 27.7864C2.3576 26.819 1.70907 25.8902 1.23077 24.8764C0.113779 22.5091 -0.170707 19.9718 0.0897943 17.3794C0.670733 11.598 3.364 6.93008 7.39835 3.00254C8.4919 1.93795 9.73118 1.06861 11.1041 0.405055C12.2499 -0.148671 13.3551 -0.139971 14.4834 0.463821C16.5596 1.57495 18.2267 3.17137 19.6775 5.02681C22.111 8.13882 23.8076 11.6256 24.6257 15.5383C25.2399 18.4761 25.1228 21.3795 24.0694 24.2714C24.0016 24.4644 23.9559 24.6028 23.9102 24.7413C23.9102 24.7413 23.9161 24.7435 23.8925 24.7574C23.3619 25.9154 22.7175 26.9718 21.917 27.9213C19.7694 30.4689 17.0823 32.0013 13.8092 32.3653C11.2305 32.6521 8.80161 32.1068 6.5276 30.8273C5.3431 30.1608 4.32594 29.2724 3.36693 28.307C3.36693 28.307 3.35067 28.314 3.35608 28.2965C3.32849 28.2417 3.29548 28.2045 3.26247 28.1672ZM20.0924 24.6916C20.5785 23.838 20.855 22.9171 20.961 21.9343C21.1647 20.0447 20.7365 18.2307 20.3544 16.411C20.3148 16.2227 20.2296 16.0447 20.1438 15.7998C20.0463 15.946 19.9996 16.0166 19.9523 16.0868C19.5691 16.6556 19.2731 17.3264 18.7825 17.7697C17.9918 18.4842 17.0822 19.0629 16.2059 19.6732C14.8552 20.6137 13.8487 21.8106 13.5126 23.4914C13.2783 24.6628 13.408 25.7831 14.3431 26.6146C15.3255 27.488 16.4683 27.4874 17.6167 27.0207C18.6975 26.5815 19.4604 25.7488 20.0924 24.6916ZM14.5009 7.72324C14.4027 7.46875 14.3045 7.21426 14.1819 6.89648C14.1382 7.09889 14.0941 7.23391 14.0816 7.37195C13.9958 8.31855 13.5924 9.12605 13.0422 9.86415C12.741 10.2681 12.4148 10.6526 12.0949 11.0415C10.871 12.5291 10.1792 14.1974 10.4965 16.1836C10.6837 17.3549 11.2164 18.3292 12.3447 18.7615C13.4287 19.1767 14.4451 18.8985 15.3084 18.1254C16.0459 17.4651 16.5026 16.6132 16.6937 15.6292C16.9955 14.0758 16.7357 12.5828 16.1154 11.1593C15.6186 10.019 15.0587 8.90778 14.5009 7.72324ZM8.65412 23.8075C9.65169 24.292 10.6214 24.2013 11.175 23.5716C11.7398 22.9292 11.7337 21.9499 11.1574 20.9721C11.1061 20.8851 11.0536 20.7978 10.9923 20.7183C10.2551 19.7616 9.27454 19.2159 8.12939 18.9802C7.00964 18.7498 5.88279 18.5558 4.91328 18.3747C5.5483 19.5468 6.23691 20.8386 6.94589 22.1185C7.33945 22.8289 7.9047 23.3744 8.65412 23.8075Z" fill="#EEEFF3"/>
</svg>
