<svg width="38" height="53" viewBox="0 0 38 53" fill="none" xmlns="http://www.w3.org/2000/svg">
<path d="M4.74698 42.9612C4.77357 42.9903 4.80006 43.0194 4.89133 43.0787C4.91387 43.1206 4.93641 43.1624 4.98938 43.2702C5.02737 43.3316 5.06535 43.393 5.09301 43.4288C5.09301 43.4288 5.11773 43.4181 5.11653 43.52C5.3306 43.9517 5.48937 44.4267 5.76773 44.8083C7.54439 47.2437 9.69857 49.223 12.4233 50.4604C16.1206 52.1394 19.929 52.5755 23.9002 51.6444C27.9828 50.6871 31.392 48.692 33.8771 45.1461C35.3802 43.0014 36.2141 40.6072 36.3525 37.9681C36.3525 37.9681 36.3436 37.9646 36.4268 37.9165C36.4902 37.6976 36.5536 37.4787 36.6191 37.1626C38.1866 32.8231 38.3646 28.3826 37.431 23.8894C36.1876 17.9053 33.6087 12.5726 29.9098 7.81307C27.7045 4.97532 25.1707 2.53374 22.0147 0.834373C20.2997 -0.0890738 18.6198 -0.102379 16.8783 0.744497C14.7914 1.75934 12.9077 3.08893 11.2455 4.71712C5.11327 10.7239 1.01951 17.8631 0.136487 26.7052C-0.259475 30.6701 0.172944 34.5506 1.87076 38.1713C2.59778 39.7217 3.58356 41.1423 4.49491 42.6765C4.52381 42.713 4.55272 42.7494 4.57312 42.7859C4.57312 42.7859 4.57422 42.7772 4.61807 42.8231C4.64676 42.8541 4.67551 42.8851 4.70569 42.9168C4.70569 42.9168 4.70629 42.9182 4.74698 42.9612Z" fill="#007BFF"/>
<path d="M4.95895 43.2043C4.93641 43.1624 4.91387 43.1206 4.85002 43.0328C4.78427 42.9486 4.75012 42.9257 4.70629 42.9182C4.70629 42.9182 4.70569 42.9167 4.69508 42.8833C4.64772 42.8256 4.61097 42.8014 4.57422 42.7772C4.57422 42.7772 4.57312 42.7859 4.56718 42.7501C4.52475 42.6835 4.48826 42.6527 4.45176 42.6218C3.58356 41.1423 2.59778 39.7217 1.87076 38.1713C0.172944 34.5506 -0.259475 30.6701 0.136487 26.7052C1.01951 17.8631 5.11327 10.7239 11.2455 4.71712C12.9077 3.08893 14.7914 1.75934 16.8783 0.744497C18.6198 -0.102379 20.2997 -0.0890737 22.0147 0.834373C25.1707 2.53374 27.7045 4.97532 29.9098 7.81307C33.6087 12.5726 36.1876 17.9053 37.431 23.8894C38.3646 28.3826 38.1866 32.8231 36.5856 37.246C36.4825 37.5411 36.413 37.7528 36.3436 37.9646C36.3436 37.9646 36.3525 37.968 36.3166 37.9892C35.5102 39.7603 34.5306 41.3759 33.3139 42.8281C30.0495 46.7245 25.965 49.0682 20.99 49.6249C17.0703 50.0635 13.3784 49.2294 9.92195 47.2726C8.12151 46.2533 6.57542 44.8946 5.11773 43.4181C5.11773 43.4181 5.09301 43.4288 5.10125 43.4019C5.0593 43.3182 5.00913 43.2612 4.95895 43.2043ZM30.5404 37.8887C31.2793 36.583 31.6996 35.1747 31.8607 33.6715C32.1703 30.7816 31.5196 28.0073 30.9387 25.2241C30.8786 24.9362 30.749 24.6639 30.6186 24.2893C30.4704 24.5129 30.3994 24.621 30.3275 24.7284C29.745 25.5983 29.295 26.6243 28.5494 27.3022C27.3475 28.395 25.965 29.2801 24.6329 30.2134C22.58 31.6518 21.0501 33.4824 20.5391 36.0531C20.183 37.8446 20.3801 39.558 21.8015 40.8297C23.2947 42.1655 25.0319 42.1645 26.7774 41.4507C28.4202 40.779 29.5798 39.5055 30.5404 37.8887ZM22.0413 11.937C21.8921 11.5478 21.7429 11.1586 21.5565 10.6726C21.49 10.9821 21.423 11.1886 21.404 11.3997C21.2736 12.8475 20.6604 14.0825 19.8241 15.2113C19.3664 15.8292 18.8706 16.4172 18.3843 17.0119C16.524 19.2871 15.4724 21.8387 15.9547 24.8764C16.2392 26.6679 17.049 28.1579 18.764 28.819C20.4117 29.4541 21.9565 29.0285 23.2688 27.8462C24.3897 26.8363 25.0839 25.5335 25.3745 24.0285C25.8331 21.6527 25.4383 19.3693 24.4955 17.1922C23.7402 15.4482 22.8892 13.7487 22.0413 11.937ZM13.1543 36.5365C14.6706 37.2775 16.1446 37.1387 16.9861 36.1757C17.8445 35.1932 17.8352 33.6954 16.9593 32.2C16.8813 32.0669 16.8014 31.9334 16.7083 31.8118C15.5878 30.3486 14.0973 29.514 12.3567 29.1536C10.6547 28.8012 8.94185 28.5045 7.46819 28.2275C8.43341 30.0202 9.4801 31.9958 10.5578 33.9533C11.156 35.0399 12.0151 35.874 13.1543 36.5365Z" fill="#EEEFF3"/>
</svg>
